# xmcd
#
# Track frame offsets:
#	150
#	17197
#	31972
#	54710
#	73740
#	86304
#	112132
#
# Disc length: 1768 seconds
#
# Revision: 0
# Processed by: cddbd v1.5.2PL0 Copyright (c) Steve Scherf et al.
# Submitted via: VUPlayer 2.49
#
DISCID=5b06e607
DTITLE=Stingray - Here I Am
DYEAR=1997
DGENRE=Blues
TTITLE0=100 Miles Away
TTITLE1=Tell Me
TTITLE2=Get Movin'
TTITLE3=Lookin' In Your Window
TTITLE4=Winning Train
TTITLE5=Last Night
TTITLE6=Coming Home
EXTD=
EXTT0=
EXTT1=
EXTT2=
EXTT3=
EXTT4=
EXTT5=
EXTT6=
PLAYORDER=
